<?xml version="1.0" standalone="no"?>
<!DOCTYPE svg PUBLIC "-//W3C//DTD SVG 20010904//EN"
 "http://www.w3.org/TR/2001/REC-SVG-20010904/DTD/svg10.dtd">
<svg version="1.0" xmlns="http://www.w3.org/2000/svg"
 width="999.000000pt" height="1046.000000pt" viewBox="0 0 999.000000 1046.000000"
 preserveAspectRatio="xMidYMid meet">

<g transform="translate(0.000000,1046.000000) scale(0.100000,-0.100000)"
fill="#000000" stroke="none">
<path d="M4472 10373 c-46 -9 -49 -41 -12 -168 17 -58 20 -99 20 -242 0 -95
-5 -196 -11 -225 -10 -52 -17 -73 -57 -173 -27 -66 -25 -116 6 -131 l24 -12
-36 -27 c-20 -15 -34 -30 -31 -34 2 -4 -14 -25 -36 -47 -53 -51 -151 -181
-168 -222 -7 -18 -19 -32 -25 -31 -6 0 -36 32 -66 71 -119 154 -282 263 -470
315 -102 28 -367 25 -479 -5 -98 -27 -181 -67 -267 -128 -61 -43 -154 -137
-154 -156 0 -5 -5 -8 -12 -6 -7 3 -18 43 -25 93 -7 48 -15 90 -17 92 -3 3 -42
0 -88 -5 -46 -6 -108 -14 -138 -17 -220 -24 -797 -109 -807 -118 -3 -4 3 -53
15 -109 11 -57 18 -105 16 -108 -3 -2 -17 4 -32 14 -59 38 -159 78 -229 92
-96 18 -270 18 -409 -1 -104 -14 -424 -77 -659 -131 -60 -13 -153 -34 -205
-45 -126 -27 -123 -25 -111 -46 25 -47 208 -682 280 -969 95 -382 193 -873
250 -1259 27 -178 71 -531 71 -567 0 -33 0 -33 70 -12 29 8 61 13 71 11 38
-10 41 13 19 199 -93 815 -263 1623 -514 2453 -14 46 -25 86 -23 88 6 5 252
59 492 108 412 83 557 84 724 4 243 -117 382 -393 446 -882 24 -183 16 -317
-21 -390 -24 -44 -80 -103 -136 -138 l-50 -32 43 -18 c149 -58 234 -144 287
-292 40 -109 58 -206 83 -446 40 -385 37 -672 -9 -814 -13 -40 -16 -72 -11
-137 l5 -85 2 82 2 82 55 -5 55 -6 0 64 c0 34 -9 198 -20 363 -60 877 -168
1739 -331 2625 -17 91 -32 172 -35 181 -4 13 21 19 153 38 305 44 528 70 535
63 3 -4 22 -119 42 -257 138 -975 226 -1931 267 -2900 6 -148 13 -272 15 -274
2 -2 4 10 4 27 0 28 4 32 25 32 17 0 29 -7 35 -22 7 -18 9 -19 9 -5 1 20 46
24 54 5 4 -10 6 -10 6 0 1 14 61 17 61 3 0 -5 11 -4 23 2 l24 11 -44 68 c-126
195 -173 407 -208 938 -21 322 -60 773 -106 1230 -26 263 -36 636 -20 722 19
93 65 202 127 295 87 131 178 199 329 250 71 23 96 26 225 27 125 1 155 -2
220 -22 105 -33 190 -83 271 -159 168 -158 233 -324 273 -689 19 -174 31 -430
22 -476 l-6 -35 -278 -12 c-152 -6 -294 -14 -314 -17 -46 -7 -43 -19 -58 226
-13 211 -35 426 -50 482 -19 68 -89 88 -111 31 -14 -37 -11 -118 15 -468 14
-176 30 -392 35 -480 6 -88 13 -191 16 -230 6 -78 29 -515 45 -845 13 -258 24
-332 56 -368 19 -22 26 -25 41 -16 45 27 48 52 47 368 -1 164 -5 326 -8 360
l-7 61 -57 0 -57 0 -8 160 c-4 88 -10 217 -15 287 l-7 127 30 5 c16 3 161 10
320 16 160 6 309 12 333 14 32 3 45 -1 51 -13 8 -14 20 -456 47 -1638 l6 -253
34 0 33 0 4 -62 3 -63 2 63 2 64 58 -6 c31 -3 67 -5 79 -5 20 -1 22 -7 26 -63
l3 -63 2 63 c2 62 2 62 32 62 37 0 38 9 4 41 -104 97 -204 340 -233 564 -13
98 -28 402 -36 715 -3 129 -13 478 -21 775 -15 523 -13 800 7 935 25 171 106
329 233 455 132 131 248 175 461 175 299 0 514 -133 640 -395 78 -164 99 -309
99 -700 -1 -148 -4 -287 -8 -307 l-7 -38 -318 0 -319 0 -4 358 c-5 382 -10
417 -53 428 -40 10 -59 0 -72 -36 -9 -26 -12 -260 -12 -920 0 -1081 8 -1419
33 -1472 10 -20 24 -39 32 -42 24 -9 51 11 63 46 20 56 32 281 29 523 l-3 230
-57 3 -58 3 0 296 0 295 367 -6 c201 -3 368 -7 369 -9 2 -1 -3 -309 -11 -682
-8 -374 -15 -805 -15 -957 l0 -277 23 -3 c20 -3 23 -10 27 -68 3 -36 8 207 13
540 13 1030 80 3087 102 3108 12 12 937 -43 1074 -64 l34 -5 -6 -62 c-4 -34
-18 -171 -32 -305 -14 -134 -25 -251 -25 -260 1 -9 12 24 25 73 33 126 50 170
95 247 162 272 496 373 854 258 122 -39 204 -90 286 -176 82 -86 124 -169 142
-278 l13 -79 40 202 39 202 50 -6 c207 -25 1365 -251 1385 -270 2 -2 -13 -57
-32 -122 -20 -65 -49 -165 -66 -223 -16 -58 -44 -156 -62 -217 -17 -62 -34
-113 -38 -113 -3 0 -81 14 -173 32 -92 17 -170 29 -174 25 -13 -13 -120 -519
-173 -822 -81 -459 -157 -1052 -177 -1377 l-7 -108 36 0 c34 0 37 -3 37 -27 0
-16 5 -35 10 -43 7 -11 10 -2 10 33 0 43 2 47 25 47 l25 0 2 -202 3 -203 2
199 c3 158 6 201 18 210 10 8 20 70 35 226 50 525 120 995 221 1505 44 221 71
339 78 347 4 4 49 -1 101 -12 52 -11 123 -25 157 -30 34 -6 69 -13 77 -16 11
-4 18 6 26 38 79 305 250 890 271 930 10 19 5 21 -161 58 -52 12 -135 30 -185
41 -374 83 -972 196 -1295 245 -52 8 -110 17 -127 20 -30 6 -33 4 -33 -17 -1
-55 -14 -55 -92 -2 -96 66 -134 84 -253 123 -131 42 -293 58 -432 43 -95 -11
-233 -50 -280 -79 -37 -23 -45 -18 -42 29 l4 44 -180 16 c-331 31 -561 46
-1110 73 l-131 6 4 33 c3 22 -7 53 -31 101 -19 38 -37 82 -41 98 -22 90 5 373
50 522 30 100 31 140 5 154 -21 11 -171 14 -209 4 -38 -11 -62 -75 -86 -234
l-11 -75 -55 0 -55 0 4 80 c2 44 7 103 11 130 8 49 0 81 -24 97 -6 4 -53 8
-104 8 -85 0 -95 -2 -117 -25 -15 -14 -25 -36 -25 -53 l0 -29 -39 37 c-62 59
-109 70 -290 69 -86 -1 -166 -4 -179 -6z m332 -84 c94 -24 146 -102 146 -220
0 -73 -12 -105 -58 -151 l-36 -38 26 -27 c33 -36 49 -69 83 -173 16 -47 36
-104 46 -127 l18 -43 -85 0 c-99 0 -89 -12 -135 165 -20 76 -36 116 -51 128
-29 24 -38 9 -38 -66 0 -63 -26 -194 -42 -214 -13 -16 -164 -18 -173 -3 -4 6
7 35 24 64 51 90 60 149 61 374 1 197 1 204 -24 258 -36 78 -29 84 96 84 54 0
119 -5 142 -11z m382 -149 l-7 -161 113 3 113 3 7 95 c7 89 18 143 39 198 8
20 15 22 79 22 38 0 70 -3 70 -8 0 -4 -9 -39 -20 -77 -26 -89 -50 -292 -50
-415 1 -84 5 -106 35 -185 25 -66 31 -91 22 -97 -7 -4 -42 -8 -79 -8 -55 0
-68 3 -72 18 -17 58 -36 180 -36 230 l0 60 -99 7 c-55 4 -105 4 -112 0 -9 -6
-10 -47 -7 -161 l6 -154 -69 0 -69 0 -2 98 c-3 151 4 676 9 685 2 4 34 7 70 7
l66 0 -7 -160z m149 -410 c4 -7 35 -187 35 -207 0 -7 -106 -2 -119 6 -15 10
-29 166 -18 196 7 17 92 22 102 5z m-571 -175 c3 -8 1 -15 -4 -15 -6 0 -10 7
-10 15 0 8 2 15 4 15 2 0 6 -7 10 -15z"/>
<path d="M4730 10050 c0 -71 2 -80 18 -80 31 0 52 33 52 79 0 55 -15 81 -45
81 -24 0 -25 -2 -25 -80z"/>
<path d="M7497 8589 c-9 -5 -25 -27 -36 -47 -33 -67 -45 -142 -46 -287 0 -133
1 -143 27 -196 16 -31 90 -128 168 -220 267 -313 364 -471 407 -663 24 -111
28 -379 9 -606 -35 -417 -78 -586 -183 -734 l-35 -49 45 6 46 6 4 -52 3 -52 2
52 2 52 39 -1 40 0 4 -47 3 -46 2 48 c2 41 5 47 25 48 12 0 41 2 64 4 l42 4 4
-87 3 -87 2 86 2 87 40 4 c36 3 39 1 42 -22 2 -14 7 34 11 105 38 659 138
1467 268 2174 21 118 38 215 36 216 -4 4 -287 45 -310 45 -22 0 -24 -6 -49
-166 -15 -91 -29 -168 -32 -171 -3 -3 -124 9 -269 26 -145 17 -278 31 -295 31
-17 0 -33 3 -35 8 -2 4 6 86 19 182 30 226 31 313 4 340 -22 22 -46 25 -73 9z"/>
<path d="M6396 8453 c-6 -61 -36 -521 -36 -550 0 -12 57 -20 235 -29 66 -3
123 -9 127 -13 7 -6 -23 -525 -38 -659 l-6 -53 -126 6 c-70 3 -150 8 -178 10
l-52 4 -7 -142 c-11 -248 -20 -589 -15 -592 3 -1 91 -6 196 -10 l191 -7 6 260
c4 144 10 268 14 277 5 15 18 16 97 11 50 -3 177 -11 281 -17 105 -6 193 -14
198 -18 4 -4 0 -99 -8 -212 -29 -396 -18 -504 49 -504 38 0 64 35 82 111 20
81 30 373 15 449 -17 88 -79 183 -277 421 -228 274 -287 369 -329 538 -49 192
-54 421 -16 699 7 49 5 57 -8 57 -9 0 -97 7 -196 15 -99 8 -183 15 -186 15 -4
0 -9 -30 -13 -67z"/>
<path d="M1054 8343 c6 -21 85 -401 117 -560 19 -97 25 -113 41 -113 28 0 76
27 88 49 32 60 -28 445 -90 579 l-29 62 -66 0 c-59 0 -66 -2 -61 -17z"/>
<path d="M1285 7098 c12 -57 75 -565 90 -733 9 -108 14 -125 36 -125 10 0 33
12 50 28 38 34 52 97 44 197 -24 278 -55 518 -77 585 -18 58 -35 70 -95 70
-50 0 -53 -1 -48 -22z"/>
<path d="M6697 6105 c-10 -106 -8 -365 3 -365 5 0 11 -26 13 -57 l3 -58 2 58
c2 50 5 57 22 57 11 0 23 0 28 0 4 0 10 -28 13 -62 l6 -63 1 68 c2 64 3 67 27
67 22 0 24 -4 28 -57 l3 -58 2 57 c2 50 5 57 24 60 21 3 21 4 -9 38 -72 83
-122 192 -147 320 l-12 65 -7 -70z"/>
<path d="M986 6102 c-3 -5 1 -9 9 -9 8 0 12 4 9 9 -3 4 -7 8 -9 8 -2 0 -6 -4
-9 -8z"/>
<path d="M936 6088 c3 -5 10 -6 15 -3 13 9 11 12 -6 12 -8 0 -12 -4 -9 -9z"/>
<path d="M850 6079 c0 -5 5 -7 10 -4 6 3 10 8 10 11 0 2 -4 4 -10 4 -5 0 -10
-5 -10 -11z"/>
<path d="M1390 6050 c-9 -6 -10 -10 -3 -10 6 0 15 5 18 10 8 12 4 12 -15 0z"/>
<path d="M977 6041 c-10 -4 -17 -10 -15 -15 2 -4 -13 -16 -32 -27 -38 -20 -36
-25 3 -10 18 7 30 6 43 -4 18 -13 17 -15 -16 -29 -19 -8 -29 -15 -22 -16 18 0
78 26 86 38 4 8 -20 74 -27 71 -1 0 -10 -4 -20 -8z"/>
<path d="M1515 6040 c-3 -6 1 -7 9 -4 18 7 21 14 7 14 -6 0 -13 -4 -16 -10z"/>
<path d="M1068 6018 c17 -8 26 -8 34 0 9 9 4 12 -22 11 -33 0 -34 -1 -12 -11z"/>
<path d="M820 5960 c-12 -8 -11 -10 7 -10 12 0 24 -4 27 -9 8 -12 56 -1 56 13
0 14 -70 19 -90 6z"/>
<path d="M1533 5861 c48 -8 51 -20 9 -44 -24 -14 -60 -21 -139 -25 l-106 -5
34 -28 c26 -22 45 -29 78 -29 42 0 43 -1 28 -18 -39 -43 -3 -78 70 -68 84 11
125 50 91 85 -11 10 3 12 70 9 83 -3 107 5 52 17 -48 11 -189 11 -183 1 4 -5
1 -6 -5 -2 -6 4 -26 1 -44 -7 -36 -15 -87 -7 -107 17 -10 11 4 14 86 18 107 5
163 24 163 57 0 24 -20 31 -83 30 -49 -2 -50 -2 -14 -8z m42 -151 c8 -13 -44
-38 -95 -46 -34 -6 -42 -4 -38 7 10 32 117 64 133 39z"/>
<path d="M5160 5862 c0 -5 -18 -37 -40 -70 l-40 -62 30 0 c29 0 30 -2 31 -47
0 -27 4 -57 9 -68 6 -14 9 0 7 45 -2 61 -1 65 21 68 19 3 23 8 18 25 -3 12 -8
41 -12 65 -4 23 -11 45 -15 48 -5 3 -9 1 -9 -4z"/>
<path d="M9030 5840 c0 -16 5 -30 10 -30 6 0 10 14 10 30 0 17 -4 30 -10 30
-5 0 -10 -13 -10 -30z"/>
<path d="M3748 5810 l-27 -49 29 -6 c29 -6 30 -9 31 -63 l2 -57 7 74 c6 48 4
86 -3 112 l-12 38 -27 -49z"/>
<path d="M2033 5810 c0 -25 2 -35 4 -22 2 12 2 32 0 45 -2 12 -4 2 -4 -23z"/>
<path d="M8603 5800 c0 -25 2 -35 4 -22 2 12 2 32 0 45 -2 12 -4 2 -4 -23z"/>
<path d="M1680 5820 c-8 -5 -10 -10 -5 -10 6 0 17 5 25 10 8 5 11 10 5 10 -5
0 -17 -5 -25 -10z"/>
<path d="M2222 5810 c0 -14 2 -19 5 -12 2 6 2 18 0 25 -3 6 -5 1 -5 -13z"/>
<path d="M2274 5745 c0 -49 1 -71 3 -48 2 23 2 64 0 90 -2 26 -3 8 -3 -42z"/>
<path d="M2311 5814 c0 -11 3 -14 6 -6 3 7 2 16 -1 19 -3 4 -6 -2 -5 -13z"/>
<path d="M8413 5785 c0 -27 2 -38 4 -22 2 15 2 37 0 50 -2 12 -4 0 -4 -28z"/>
<path d="M8503 5755 c0 -44 2 -61 4 -37 2 23 2 59 0 80 -2 20 -4 1 -4 -43z"/>
<path d="M2363 5770 c0 -30 2 -43 4 -27 2 15 2 39 0 55 -2 15 -4 2 -4 -28z"/>
<path d="M8321 5804 c0 -11 3 -14 6 -6 3 7 2 16 -1 19 -3 4 -6 -2 -5 -13z"/>
<path d="M8353 5780 c0 -25 2 -35 4 -22 2 12 2 32 0 45 -2 12 -4 2 -4 -23z"/>
<path d="M2553 5730 c0 -47 2 -66 4 -42 2 23 2 61 0 85 -2 23 -4 4 -4 -43z"/>
<path d="M8542 5785 c0 -16 2 -22 5 -12 2 9 2 23 0 30 -3 6 -5 -1 -5 -18z"/>
<path d="M2463 5760 c0 -25 2 -35 4 -22 2 12 2 32 0 45 -2 12 -4 2 -4 -23z"/>
<path d="M2643 5750 c0 -25 2 -35 4 -22 2 12 2 32 0 45 -2 12 -4 2 -4 -23z"/>
<path d="M2752 5750 c0 -19 2 -27 5 -17 2 9 2 25 0 35 -3 9 -5 1 -5 -18z"/>
<path d="M7674 5645 c0 -77 2 -107 3 -67 2 40 2 103 0 140 -2 37 -3 4 -3 -73z"/>
<path d="M7764 5695 c0 -49 1 -71 3 -48 2 23 2 64 0 90 -2 26 -3 8 -3 -42z"/>
<path d="M2692 5750 c0 -14 2 -19 5 -12 2 6 2 18 0 25 -3 6 -5 1 -5 -13z"/>
<path d="M7433 5720 c0 -30 2 -43 4 -27 2 15 2 39 0 55 -2 15 -4 2 -4 -28z"/>
<path d="M7484 5590 c0 -102 2 -143 3 -92 2 50 2 134 0 185 -1 50 -3 9 -3 -93z"/>
<path d="M7533 5725 c0 -27 2 -38 4 -22 2 15 2 37 0 50 -2 12 -4 0 -4 -28z"/>
<path d="M3162 5730 c0 -19 2 -27 5 -17 2 9 2 25 0 35 -3 9 -5 1 -5 -18z"/>
<path d="M3571 5744 c0 -11 3 -14 6 -6 3 7 2 16 -1 19 -3 4 -6 -2 -5 -13z"/>
<path d="M7154 5665 c0 -55 1 -76 3 -47 2 29 2 74 0 100 -2 26 -3 2 -3 -53z"/>
<path d="M7213 5705 c0 -33 2 -45 4 -27 2 18 2 45 0 60 -2 15 -4 0 -4 -33z"/>
<path d="M7274 5650 c0 -63 1 -89 3 -57 2 31 2 83 0 115 -2 31 -3 5 -3 -58z"/>
<path d="M3092 5725 c0 -16 2 -22 5 -12 2 9 2 23 0 30 -3 6 -5 -1 -5 -18z"/>
<path d="M3233 5710 c0 -25 2 -35 4 -22 2 12 2 32 0 45 -2 12 -4 2 -4 -23z"/>
<path d="M3304 5605 c0 -82 2 -115 3 -72 2 43 2 110 0 150 -1 40 -3 5 -3 -78z"/>
<path d="M3642 5730 c0 -14 2 -19 5 -12 2 6 2 18 0 25 -3 6 -5 1 -5 -13z"/>
<path d="M6904 5655 c0 -55 1 -76 3 -47 2 29 2 74 0 100 -2 26 -3 2 -3 -53z"/>
<path d="M6963 5695 c0 -33 2 -45 4 -27 2 18 2 45 0 60 -2 15 -4 0 -4 -33z"/>
<path d="M7023 5700 c0 -30 2 -43 4 -27 2 15 2 39 0 55 -2 15 -4 2 -4 -28z"/>
<path d="M7093 5700 c0 -30 2 -43 4 -27 2 15 2 39 0 55 -2 15 -4 2 -4 -28z"/>
<path d="M8043 5700 c0 -30 2 -43 4 -27 2 15 2 39 0 55 -2 15 -4 2 -4 -28z"/>
<path d="M2893 5675 c0 -38 2 -53 4 -32 2 20 2 52 0 70 -2 17 -4 1 -4 -38z"/>
<path d="M2962 5715 c0 -16 2 -22 5 -12 2 9 2 23 0 30 -3 6 -5 -1 -5 -18z"/>
<path d="M3373 5700 c0 -25 2 -35 4 -22 2 12 2 32 0 45 -2 12 -4 2 -4 -23z"/>
<path d="M3861 5549 c1 -107 5 -273 9 -369 5 -112 6 -43 2 190 -2 201 -6 367
-8 369 -2 2 -3 -83 -3 -190z"/>
<path d="M3940 5697 c0 -25 4 -48 9 -51 8 -5 3 84 -5 93 -2 2 -4 -16 -4 -42z"/>
<path d="M4034 5645 c0 -55 1 -76 3 -47 2 29 2 74 0 100 -2 26 -3 2 -3 -53z"/>
<path d="M2822 5710 c0 -14 2 -19 5 -12 2 6 2 18 0 25 -3 6 -5 1 -5 -13z"/>
<path d="M4123 5675 c0 -33 2 -45 4 -27 2 18 2 45 0 60 -2 15 -4 0 -4 -33z"/>
<path d="M4207 5595 c3 -77 7 -142 9 -144 7 -8 2 162 -6 224 -5 38 -6 8 -3
-80z"/>
<path d="M4552 5545 c0 -104 3 -210 7 -235 4 -25 5 54 3 175 -4 277 -10 309
-10 60z"/>
<path d="M6327 5682 c7 -69 11 -74 12 -15 1 28 -3 54 -8 57 -5 3 -6 -16 -4
-42z"/>
<path d="M6404 5635 c0 -55 1 -76 3 -47 2 29 2 74 0 100 -2 26 -3 2 -3 -53z"/>
<path d="M6463 5675 c0 -33 2 -45 4 -27 2 18 2 45 0 60 -2 15 -4 0 -4 -33z"/>
<path d="M7582 5700 c0 -19 2 -27 5 -17 2 9 2 25 0 35 -3 9 -5 1 -5 -18z"/>
<path d="M1870 5710 c-8 -5 -10 -10 -5 -10 6 0 17 5 25 10 8 5 11 10 5 10 -5
0 -17 -5 -25 -10z"/>
<path d="M4633 5685 c0 -22 2 -30 4 -17 2 12 2 30 0 40 -3 9 -5 -1 -4 -23z"/>
<path d="M4724 5625 c0 -55 1 -76 3 -47 2 29 2 74 0 100 -2 26 -3 2 -3 -53z"/>
<path d="M4800 5694 c0 -14 4 -23 9 -20 5 3 7 15 4 26 -7 28 -13 25 -13 -6z"/>
<path d="M4892 5590 c-1 -74 2 -141 6 -147 4 -7 6 45 4 115 -4 178 -9 192 -10
32z"/>
<path d="M4971 5698 c-1 -15 4 -30 9 -33 12 -7 12 12 0 40 -8 18 -9 17 -9 -7z"/>
<path d="M5064 5625 c0 -55 1 -76 3 -47 2 29 2 74 0 100 -2 26 -3 2 -3 -53z"/>
<path d="M5243 5545 c0 -99 3 -265 6 -370 l7 -190 1 160 c0 88 -3 255 -7 370
l-6 210 -1 -180z"/>
<path d="M5320 5682 c0 -22 5 -44 10 -47 7 -4 8 8 4 37 -9 57 -14 61 -14 10z"/>
<path d="M5414 5620 c0 -58 1 -81 3 -52 2 28 2 76 0 105 -2 28 -3 5 -3 -53z"/>
<path d="M5493 5660 c0 -36 2 -50 4 -32 2 17 2 47 0 65 -2 17 -4 3 -4 -33z"/>
<path d="M5584 5575 c0 -82 2 -115 3 -72 2 43 2 110 0 150 -1 40 -3 5 -3 -78z"/>
<path d="M5748 5638 c4 -126 9 -135 11 -20 0 56 -2 102 -7 102 -4 0 -6 -37 -4
-82z"/>
<path d="M5833 5665 c0 -33 2 -45 4 -27 2 18 2 45 0 60 -2 15 -4 0 -4 -33z"/>
<path d="M5913 5620 c0 -58 3 -163 6 -235 l8 -130 0 115 c0 63 -3 169 -7 235
l-6 120 -1 -105z"/>
<path d="M6003 5665 c0 -33 2 -45 4 -27 2 18 2 45 0 60 -2 15 -4 0 -4 -33z"/>
<path d="M6084 5625 c0 -55 1 -76 3 -47 2 29 2 74 0 100 -2 26 -3 2 -3 -53z"/>
<path d="M6163 5670 c0 -30 2 -43 4 -27 2 15 2 39 0 55 -2 15 -4 2 -4 -28z"/>
<path d="M6248 5613 c4 -174 9 -188 10 -35 1 78 -1 142 -5 142 -5 0 -7 -48 -5
-107z"/>
<path d="M3502 5685 c0 -16 2 -22 5 -12 2 9 2 23 0 30 -3 6 -5 -1 -5 -18z"/>
<path d="M4384 5625 c0 -49 1 -71 3 -48 2 23 2 64 0 90 -2 26 -3 8 -3 -42z"/>
<path d="M2752 5675 c0 -16 2 -22 5 -12 2 9 2 23 0 30 -3 6 -5 -1 -5 -18z"/>
<path d="M3572 5670 c0 -19 2 -27 5 -17 2 9 2 25 0 35 -3 9 -5 1 -5 -18z"/>
<path d="M3034 5595 c0 -55 1 -76 3 -47 2 29 2 74 0 100 -2 26 -3 2 -3 -53z"/>
<path d="M6653 5620 c0 -41 2 -58 4 -37 2 20 2 54 0 75 -2 20 -4 3 -4 -38z"/>
<path d="M3162 5650 c0 -19 2 -27 5 -17 2 9 2 25 0 35 -3 9 -5 1 -5 -18z"/>
<path d="M3642 5660 c0 -14 2 -19 5 -12 2 6 2 18 0 25 -3 6 -5 1 -5 -13z"/>
<path d="M1943 5650 c-34 -14 -28 -21 7 -9 17 6 30 13 30 15 0 6 -12 4 -37 -6z"/>
<path d="M3443 5610 c0 -25 2 -35 4 -22 2 12 2 32 0 45 -2 12 -4 2 -4 -23z"/>
<path d="M3713 5605 c0 -27 2 -38 4 -22 2 15 2 37 0 50 -2 12 -4 0 -4 -28z"/>
<path d="M8926 5619 c-8 -40 -8 -327 0 -356 10 -36 24 -16 23 30 -1 40 -2 40
-9 12 -4 -17 -8 42 -8 140 0 98 4 157 8 140 7 -27 8 -25 9 18 1 53 -13 63 -23
16z"/>
<path d="M2025 5630 c-3 -6 1 -7 9 -4 18 7 21 14 7 14 -6 0 -13 -4 -16 -10z"/>
<path d="M6533 5580 c0 -36 2 -50 4 -32 2 17 2 47 0 65 -2 17 -4 3 -4 -33z"/>
<path d="M2752 5605 c0 -16 2 -22 5 -12 2 9 2 23 0 30 -3 6 -5 -1 -5 -18z"/>
<path d="M8895 5603 c-15 -48 -7 -363 8 -363 9 0 11 41 9 162 -1 90 -4 179 -5
198 l-3 35 -9 -32z"/>
<path d="M3573 5550 c0 -41 2 -58 4 -37 2 20 2 54 0 75 -2 20 -4 3 -4 -38z"/>
<path d="M8610 5596 c-17 -45 -13 -202 6 -220 12 -13 14 -27 9 -69 -4 -28 -11
-62 -16 -74 -5 -14 -5 -23 1 -23 20 0 34 91 34 237 1 106 -3 156 -11 164 -10
10 -14 6 -23 -15z m19 -98 c0 -61 -3 -86 -9 -73 -15 34 -10 165 6 165 2 0 4
-42 3 -92z"/>
<path d="M1300 5590 c0 -5 5 -10 11 -10 5 0 7 5 4 10 -3 6 -8 10 -11 10 -2 0
-4 -4 -4 -10z"/>
<path d="M2374 5500 c0 -58 1 -81 3 -52 2 28 2 76 0 105 -2 28 -3 5 -3 -53z"/>
<path d="M1152 5565 c0 -16 2 -22 5 -12 2 9 2 23 0 30 -3 6 -5 -1 -5 -18z"/>
<path d="M1995 5580 c-13 -6 -15 -9 -5 -9 8 0 22 4 30 9 18 12 2 12 -25 0z"/>
<path d="M2130 5580 c-8 -5 -10 -10 -5 -10 6 0 17 5 25 10 8 5 11 10 5 10 -5
0 -17 -5 -25 -10z"/>
<path d="M2562 5560 c0 -14 2 -19 5 -12 2 6 2 18 0 25 -3 6 -5 1 -5 -13z"/>
<path d="M1338 5420 c2 -100 0 -150 -7 -150 -6 0 -11 -7 -11 -15 0 -11 11 -15
40 -15 41 0 50 9 26 29 -10 8 -15 47 -18 141 -3 97 -8 134 -18 145 -13 13 -15
-4 -12 -135z"/>
<path d="M8112 5557 c-22 -26 -33 -105 -21 -150 12 -46 12 -51 3 -153 -5 -59
-3 -73 11 -88 23 -23 36 -17 57 25 22 41 23 107 4 153 -12 30 -12 40 1 78 29
85 -12 187 -55 135z m40 -53 c4 -16 6 -36 4 -44 -2 -8 -7 -28 -11 -45 l-7 -30
-13 25 c-15 27 -19 71 -9 108 8 30 26 23 36 -14z m-4 -264 c-2 -41 -7 -55 -18
-55 -17 0 -26 79 -15 124 6 25 7 26 21 6 10 -13 14 -39 12 -75z"/>
<path d="M7034 5430 c0 -74 1 -105 3 -67 2 37 2 97 0 135 -2 37 -3 6 -3 -68z"/>
<path d="M2638 5539 c-14 -8 -38 -65 -38 -91 0 -18 19 -6 22 13 2 12 11 27 21
33 15 9 21 7 33 -8 22 -31 17 -81 -11 -115 -21 -24 -23 -31 -11 -38 43 -24 63
-145 28 -176 -20 -18 -33 -12 -51 21 -13 25 -31 21 -31 -7 0 -37 51 -62 95
-45 46 18 61 142 25 202 -20 33 -20 36 -4 78 32 85 -17 169 -78 133z"/>
<path d="M2762 5530 c0 -14 2 -19 5 -12 2 6 2 18 0 25 -3 6 -5 1 -5 -13z"/>
<path d="M8954 5455 c0 -55 1 -76 3 -47 2 29 2 74 0 100 -2 26 -3 2 -3 -53z"/>
<path d="M6783 5500 c0 -25 2 -35 4 -22 2 12 2 32 0 45 -2 12 -4 2 -4 -23z"/>
<path d="M7315 5474 c-3 -26 -9 -54 -12 -63 -3 -11 1 -9 14 6 20 23 103 38
103 18 0 -6 -20 -76 -46 -155 -42 -135 -49 -190 -24 -190 15 0 17 9 49 165 16
83 37 170 46 194 8 24 15 48 15 53 0 5 -25 6 -60 2 -42 -5 -60 -3 -60 5 0 6
-4 11 -9 11 -5 0 -12 -21 -16 -46z"/>
<path d="M2762 5465 c0 -16 2 -22 5 -12 2 9 2 23 0 30 -3 6 -5 -1 -5 -18z"/>
<path d="M2185 5470 c-13 -6 -15 -9 -5 -9 8 0 22 4 30 9 18 12 2 12 -25 0z"/>
<path d="M3680 5339 c-47 -77 -85 -146 -85 -152 0 -8 26 -14 70 -17 l70 -5 3
-52 c3 -49 5 -53 28 -53 22 0 24 4 24 51 0 42 3 52 20 56 11 3 20 14 20 25 0
11 -9 22 -20 25 -18 5 -20 14 -20 82 0 87 -10 181 -19 181 -3 0 -44 -64 -91
-141z m50 -44 l0 -75 -45 0 c-25 0 -45 3 -45 6 0 7 83 144 88 144 1 0 2 -34 2
-75z"/>
<path d="M7863 5420 c0 -36 2 -50 4 -32 2 17 2 47 0 65 -2 17 -4 3 -4 -33z"/>
<path d="M5174 5455 c-5 -12 -25 -15 -89 -15 -46 0 -86 -3 -88 -8 -3 -4 -8
-49 -12 -100 -7 -89 -7 -92 14 -92 33 0 101 -31 111 -51 18 -33 12 -84 -14
-108 -20 -19 -32 -22 -68 -18 -24 2 -53 8 -65 12 -17 5 -23 3 -23 -8 0 -27 31
-41 85 -41 71 1 121 33 147 90 37 85 -14 167 -112 180 -52 7 -57 13 -44 62 6
20 12 22 84 22 l77 0 11 39 c7 21 12 41 12 45 0 12 -21 6 -26 -9z"/>
<path d="M6409 5438 c-65 -51 -102 -125 -106 -217 -4 -65 -1 -83 19 -121 22
-42 26 -45 69 -48 41 -3 49 0 72 28 48 56 45 170 -6 205 -26 18 -59 19 -75 3
-24 -24 -23 2 2 57 14 31 39 69 56 85 43 41 20 46 -31 8z m19 -203 c15 -32 16
-120 2 -146 -6 -10 -19 -19 -30 -19 -11 0 -24 9 -30 19 -11 22 -14 154 -3 164
16 16 50 6 61 -18z"/>
<path d="M6533 5385 c0 -38 2 -53 4 -32 2 20 2 52 0 70 -2 17 -4 1 -4 -38z"/>
<path d="M3313 5370 c0 -36 2 -50 4 -32 2 17 2 47 0 65 -2 17 -4 3 -4 -33z"/>
<path d="M2764 5320 c0 -58 1 -81 3 -52 2 28 2 76 0 105 -2 28 -3 5 -3 -53z"/>
<path d="M1942 5374 c20 -9 39 -22 42 -30 7 -19 -18 -42 -62 -54 -49 -13 -74
-12 -157 6 -38 8 -83 17 -98 21 l-28 6 30 -52 c17 -29 31 -59 31 -68 0 -12 7
-14 31 -9 17 3 43 6 58 7 26 1 25 1 -4 10 -17 5 -38 22 -48 39 -21 35 -18 36
67 14 86 -22 177 -16 211 16 51 47 20 100 -62 106 l-48 4 37 -16z"/>
<path d="M1412 5355 c0 -16 2 -22 5 -12 2 9 2 23 0 30 -3 6 -5 -1 -5 -18z"/>
<path d="M1411 5294 c0 -11 3 -14 6 -6 3 7 2 16 -1 19 -3 4 -6 -2 -5 -13z"/>
<path d="M2295 5280 c-13 -5 -14 -9 -5 -9 8 0 24 4 35 9 13 5 14 9 5 9 -8 0
-24 -4 -35 -9z"/>
<path d="M6534 5135 c0 -71 1 -99 3 -62 2 37 2 96 0 130 -2 34 -3 4 -3 -68z"/>
<path d="M1985 5240 c-17 -7 -17 -9 -2 -9 9 -1 17 -5 17 -11 0 -5 8 -10 18
-10 11 0 26 -16 40 -45 l22 -45 -33 0 c-17 0 -82 4 -143 10 -118 9 -154 6
-154 -15 0 -19 11 -20 212 -17 l186 3 -24 55 c-13 31 -22 60 -19 65 4 5 -19 9
-52 10 -42 0 -52 3 -38 9 13 5 14 9 5 9 -8 0 -24 -4 -35 -9z"/>
<path d="M2335 5230 c-13 -5 -14 -9 -5 -9 8 0 24 4 35 9 13 5 14 9 5 9 -8 0
-24 -4 -35 -9z"/>
<path d="M2208 5193 c7 -3 16 -2 19 1 4 3 -2 6 -13 5 -11 0 -14 -3 -6 -6z"/>
<path d="M2772 5170 c0 -14 2 -19 5 -12 2 6 2 18 0 25 -3 6 -5 1 -5 -13z"/>
<path d="M2368 5173 c7 -3 16 -2 19 1 4 3 -2 6 -13 5 -11 0 -14 -3 -6 -6z"/>
<path d="M729 4843 c11 -931 -103 -1969 -323 -2943 -47 -210 -74 -322 -96
-405 -11 -38 -36 -131 -55 -205 -20 -74 -45 -162 -55 -195 -75 -244 -120 -409
-113 -415 18 -16 829 -182 1213 -249 292 -51 547 -91 574 -91 27 0 30 5 45 94
6 33 13 62 16 65 3 3 36 -25 73 -61 147 -143 304 -230 503 -278 488 -117 939
53 1206 454 l70 104 33 -75 c123 -280 393 -515 680 -592 195 -52 364 -63 520
-36 271 47 440 129 618 299 76 72 82 68 82 -50 0 -45 3 -96 6 -113 l7 -32 121
6 c381 20 838 50 1050 70 875 83 1482 171 2311 336 481 95 505 101 505 116 0
8 -27 107 -60 221 -123 431 -208 783 -315 1312 -76 376 -105 491 -147 574 -44
88 -123 204 -175 257 l-45 46 36 50 c45 63 69 120 92 219 17 68 19 120 18 389
-2 567 -58 950 -175 1193 l-50 104 -37 -6 c-20 -3 -61 -8 -90 -12 -38 -4 -50
-9 -43 -17 22 -27 91 -177 110 -239 70 -230 120 -748 108 -1118 -6 -189 -22
-278 -62 -346 -39 -66 -115 -144 -172 -176 -30 -17 -52 -32 -50 -34 2 -3 41
-22 86 -44 100 -48 165 -108 231 -212 84 -130 97 -174 190 -638 56 -279 120
-569 174 -787 44 -174 138 -520 151 -555 4 -11 0 -18 -13 -22 -11 -4 -22 -14
-24 -24 -4 -14 -36 -24 -149 -46 -383 -76 -655 -124 -661 -118 -9 9 -106 461
-152 707 -54 294 -82 457 -126 750 -73 478 -91 534 -177 571 -18 8 -47 14 -64
14 l-31 0 7 -77 c33 -373 156 -1167 265 -1717 27 -137 47 -253 44 -257 -3 -5
-12 -9 -20 -9 -8 0 -14 -7 -12 -17 3 -19 -84 -34 -547 -97 -366 -50 -328 -51
-337 9 -187 1225 -298 2598 -315 3878 l-6 508 -41 -3 -41 -3 -1 -298 c0 -163
-3 -299 -5 -302 -3 -2 -117 -7 -253 -11 l-249 -7 7 -381 c3 -210 9 -405 12
-434 l6 -53 238 7 238 7 6 -64 c3 -35 11 -156 17 -269 5 -113 16 -289 24 -392
7 -103 11 -196 8 -207 -6 -24 -19 -26 -283 -42 -107 -6 -198 -13 -201 -15 -4
-2 -4 -36 -2 -76 6 -96 51 -750 60 -855 l6 -83 41 0 c23 0 140 9 261 20 261
23 304 24 309 7 2 -6 18 -133 36 -282 18 -148 45 -359 60 -468 23 -164 28
-237 16 -237 -1 0 -103 -11 -227 -25 -378 -41 -1080 -95 -1252 -95 -53 0 -79
4 -82 13 -2 6 -6 73 -9 147 -3 74 -13 272 -21 440 -8 168 -19 431 -25 585 -5
154 -12 339 -15 410 -18 432 -36 1221 -40 1805 -3 371 -8 775 -11 898 l-6 222
-82 0 -82 0 18 -87 c10 -49 24 -154 33 -235 17 -171 31 -652 21 -720 l-7 -48
-379 0 -378 0 -4 328 c-5 355 -10 388 -60 425 -52 39 -102 -8 -125 -117 -18
-87 -17 -391 2 -500 28 -160 61 -211 301 -457 437 -449 592 -676 668 -974 50
-199 79 -438 97 -800 21 -448 -11 -764 -98 -955 -92 -202 -306 -388 -529 -460
-302 -97 -646 -49 -889 124 -99 71 -223 215 -266 310 -14 31 -8 29 -204 62
-82 14 -164 27 -180 30 -28 5 -34 1 -68 -49 -40 -58 -154 -175 -203 -208 -211
-143 -386 -196 -614 -186 -245 11 -426 82 -588 232 -125 116 -210 268 -256
457 -11 48 -24 88 -27 88 -3 0 -12 -35 -19 -77 -18 -115 -79 -423 -85 -433 -3
-4 -14 -6 -25 -3 -14 4 -20 0 -20 -11 0 -9 -7 -16 -15 -16 -60 0 -778 131
-1155 210 -129 28 -239 50 -243 50 -5 0 -6 8 -2 18 3 9 35 116 70 237 290
1011 457 1999 515 3050 14 262 23 860 13 930 l-8 59 -60 13 c-112 23 -101 56
-96 -284z"/>
<path d="M2772 5100 c0 -19 2 -27 5 -17 2 9 2 25 0 35 -3 9 -5 1 -5 -18z"/>
<path d="M2345 5110 c-13 -5 -14 -9 -5 -9 8 0 24 4 35 9 13 5 14 9 5 9 -8 0
-24 -4 -35 -9z"/>
<path d="M7492 5090 c0 -19 2 -27 5 -17 2 9 2 25 0 35 -3 9 -5 1 -5 -18z"/>
<path d="M2298 5093 c7 -3 16 -2 19 1 4 3 -2 6 -13 5 -11 0 -14 -3 -6 -6z"/>
<path d="M2178 5063 c7 -3 16 -2 19 1 4 3 -2 6 -13 5 -11 0 -14 -3 -6 -6z"/>
<path d="M2408 5063 c7 -3 16 -2 19 1 4 3 -2 6 -13 5 -11 0 -14 -3 -6 -6z"/>
<path d="M2338 5043 c7 -3 16 -2 19 1 4 3 -2 6 -13 5 -11 0 -14 -3 -6 -6z"/>
<path d="M2385 5000 c-13 -5 -14 -9 -5 -9 8 0 24 4 35 9 13 5 14 9 5 9 -8 0
-24 -4 -35 -9z"/>
<path d="M2338 4983 c7 -3 16 -2 19 1 4 3 -2 6 -13 5 -11 0 -14 -3 -6 -6z"/>
<path d="M2420 4950 c-20 -6 -21 -8 -5 -8 11 0 29 3 40 8 25 11 -1 11 -35 0z"/>
<path d="M2448 4893 c7 -3 16 -2 19 1 4 3 -2 6 -13 5 -11 0 -14 -3 -6 -6z"/>
<path d="M1717 4625 c-8 -352 -33 -910 -52 -1150 -44 -565 -131 -1249 -220
-1734 -14 -73 -23 -137 -20 -141 5 -8 413 -66 420 -59 2 3 13 79 23 169 l19
164 -33 102 c-105 322 -130 874 -59 1294 52 307 59 399 59 710 1 327 -15 476
-73 715 -58 234 -58 235 -64 -70z"/>
<path d="M2408 4883 c7 -3 16 -2 19 1 4 3 -2 6 -13 5 -11 0 -14 -3 -6 -6z"/>
<path d="M2368 4873 c7 -3 16 -2 19 1 4 3 -2 6 -13 5 -11 0 -14 -3 -6 -6z"/>
<path d="M3772 4818 c35 -86 78 -246 94 -348 25 -166 35 -587 24 -1055 -23
-979 -50 -1540 -97 -2004 -6 -64 -6 -64 18 -58 13 4 31 7 40 7 13 0 17 48 28
367 7 203 15 377 17 389 5 20 10 21 137 17 73 -3 251 -8 397 -11 l265 -7 0
-455 c0 -494 1 -508 55 -562 67 -67 139 -19 177 117 35 127 24 538 -18 704
-30 116 -110 226 -403 546 -218 238 -364 423 -416 525 -65 129 -125 350 -151
555 -17 128 -17 665 0 840 14 158 47 350 71 421 l18 51 -51 7 c-29 3 -91 6
-139 6 l-88 0 22 -52z"/>
<path d="M2228 4843 c7 -3 16 -2 19 1 4 3 -2 6 -13 5 -11 0 -14 -3 -6 -6z"/>
<path d="M2188 4833 c7 -3 16 -2 19 1 4 3 -2 6 -13 5 -11 0 -14 -3 -6 -6z"/>
<path d="M2448 4833 c7 -3 16 -2 19 1 4 3 -2 6 -13 5 -11 0 -14 -3 -6 -6z"/>
<path d="M2148 4823 c7 -3 16 -2 19 1 4 3 -2 6 -13 5 -11 0 -14 -3 -6 -6z"/>
<path d="M2408 4823 c7 -3 16 -2 19 1 4 3 -2 6 -13 5 -11 0 -14 -3 -6 -6z"/>
<path d="M2108 4813 c7 -3 16 -2 19 1 4 3 -2 6 -13 5 -11 0 -14 -3 -6 -6z"/>
<path d="M2478 4783 c7 -3 16 -2 19 1 4 3 -2 6 -13 5 -11 0 -14 -3 -6 -6z"/>
<path d="M2438 4773 c7 -3 16 -2 19 1 4 3 -2 6 -13 5 -11 0 -14 -3 -6 -6z"/>
<path d="M2398 4763 c7 -3 16 -2 19 1 4 3 -2 6 -13 5 -11 0 -14 -3 -6 -6z"/>
<path d="M2468 4723 c7 -3 16 -2 19 1 4 3 -2 6 -13 5 -11 0 -14 -3 -6 -6z"/>
<path d="M2458 4663 c7 -3 16 -2 19 1 4 3 -2 6 -13 5 -11 0 -14 -3 -6 -6z"/>
<path d="M2408 4653 c6 -2 18 -2 25 0 6 3 1 5 -13 5 -14 0 -19 -2 -12 -5z"/>
<path d="M2368 4643 c7 -3 16 -2 19 1 4 3 -2 6 -13 5 -11 0 -14 -3 -6 -6z"/>
<path d="M2488 4613 c7 -3 16 -2 19 1 4 3 -2 6 -13 5 -11 0 -14 -3 -6 -6z"/>
<path d="M2220 4572 c0 -5 11 -13 24 -16 51 -13 39 -67 -20 -86 -46 -15 -91
-7 -183 36 -41 19 -76 33 -78 31 -9 -9 22 -147 33 -147 6 0 27 -3 45 -6 l34
-7 -27 26 c-19 17 -28 36 -28 56 l0 30 75 -36 c64 -30 83 -35 126 -31 63 6 99
37 99 85 0 23 -7 37 -22 47 -31 20 -78 31 -78 18z"/>
<path d="M2468 4553 c7 -3 16 -2 19 1 4 3 -2 6 -13 5 -11 0 -14 -3 -6 -6z"/>
<path d="M2418 4543 c6 -2 18 -2 25 0 6 3 1 5 -13 5 -14 0 -19 -2 -12 -5z"/>
<path d="M2946 4508 c-35 -54 -41 -125 -61 -703 -25 -728 -66 -1324 -140
-2079 -14 -136 -25 -275 -25 -307 0 -49 -3 -59 -17 -60 -15 0 -15 -2 2 -8 11
-5 27 -22 35 -37 8 -16 19 -32 25 -36 5 -4 -2 -8 -17 -8 -16 0 -28 -5 -28 -10
0 -21 30 -70 49 -80 21 -11 81 -14 81 -4 0 4 -14 23 -32 43 l-32 36 51 3 51 3
16 87 c49 278 112 1082 152 1952 17 385 24 1046 11 1122 -15 89 -86 139 -121
86z"/>
<path d="M2448 4433 c7 -3 16 -2 19 1 4 3 -2 6 -13 5 -11 0 -14 -3 -6 -6z"/>
<path d="M2398 4423 c7 -3 16 -2 19 1 4 3 -2 6 -13 5 -11 0 -14 -3 -6 -6z"/>
<path d="M2338 4413 c6 -2 18 -2 25 0 6 3 1 5 -13 5 -14 0 -19 -2 -12 -5z"/>
<path d="M2298 4403 c7 -3 16 -2 19 1 4 3 -2 6 -13 5 -11 0 -14 -3 -6 -6z"/>
<path d="M7987 4273 c6 -218 33 -775 39 -810 4 -30 7 -32 37 -27 110 20 127
39 135 159 6 96 -14 527 -29 625 -14 89 -43 140 -99 168 -24 12 -54 22 -66 22
-21 0 -21 -2 -17 -137z"/>
<path d="M2098 4373 c6 -2 18 -2 25 0 6 3 1 5 -13 5 -14 0 -19 -2 -12 -5z"/>
<path d="M2188 4351 c-35 -30 -36 -30 -67 -15 -60 30 -121 -4 -121 -67 0 -46
27 -69 82 -69 27 0 46 8 70 29 30 26 35 28 53 15 31 -23 92 -18 120 11 50 49
21 113 -56 122 -41 5 -50 2 -81 -26z m126 -26 c19 -20 12 -39 -20 -54 -28 -12
-54 -14 -78 -5 -22 8 -20 23 6 51 25 27 69 30 92 8z m-190 -18 c16 -12 17 -16
5 -35 -17 -27 -61 -46 -89 -37 -30 9 -24 55 10 72 32 16 52 16 74 0z"/>
<path d="M2048 4363 c6 -2 18 -2 25 0 6 3 1 5 -13 5 -14 0 -19 -2 -12 -5z"/>
<path d="M1998 4353 c6 -2 18 -2 25 0 6 3 1 5 -13 5 -14 0 -19 -2 -12 -5z"/>
<path d="M2508 4323 c6 -2 18 -2 25 0 6 3 1 5 -13 5 -14 0 -19 -2 -12 -5z"/>
<path d="M2448 4313 c6 -2 18 -2 25 0 6 3 1 5 -13 5 -14 0 -19 -2 -12 -5z"/>
<path d="M2558 4263 c7 -3 16 -2 19 1 4 3 -2 6 -13 5 -11 0 -14 -3 -6 -6z"/>
<path d="M2498 4253 c6 -2 18 -2 25 0 6 3 1 5 -13 5 -14 0 -19 -2 -12 -5z"/>
<path d="M2543 4193 c9 -2 23 -2 30 0 6 3 -1 5 -18 5 -16 0 -22 -2 -12 -5z"/>
<path d="M2473 4183 c9 -2 25 -2 35 0 9 3 1 5 -18 5 -19 0 -27 -2 -17 -5z"/>
<path d="M2413 4173 c9 -2 23 -2 30 0 6 3 -1 5 -18 5 -16 0 -22 -2 -12 -5z"/>
<path d="M2348 4163 c6 -2 18 -2 25 0 6 3 1 5 -13 5 -14 0 -19 -2 -12 -5z"/>
<path d="M2523 4123 c9 -2 23 -2 30 0 6 3 -1 5 -18 5 -16 0 -22 -2 -12 -5z"/>
<path d="M2558 4063 c7 -3 16 -2 19 1 4 3 -2 6 -13 5 -11 0 -14 -3 -6 -6z"/>
<path d="M2493 4053 c9 -2 23 -2 30 0 6 3 -1 5 -18 5 -16 0 -22 -2 -12 -5z"/>
<path d="M2523 3993 c9 -2 25 -2 35 0 9 3 1 5 -18 5 -19 0 -27 -2 -17 -5z"/>
<path d="M2443 3923 c9 -2 25 -2 35 0 9 3 1 5 -18 5 -19 0 -27 -2 -17 -5z"/>
<path d="M2353 3913 c9 -2 25 -2 35 0 9 3 1 5 -18 5 -19 0 -27 -2 -17 -5z"/>
<path d="M2268 3903 c12 -2 30 -2 40 0 9 3 -1 5 -23 4 -22 0 -30 -2 -17 -4z"/>
<path d="M2208 3893 c6 -2 18 -2 25 0 6 3 1 5 -13 5 -14 0 -19 -2 -12 -5z"/>
<path d="M2483 3803 c9 -2 25 -2 35 0 9 3 1 5 -18 5 -19 0 -27 -2 -17 -5z"/>
<path d="M2503 3743 c9 -2 25 -2 35 0 9 3 1 5 -18 5 -19 0 -27 -2 -17 -5z"/>
<path d="M2513 3683 c9 -2 25 -2 35 0 9 3 1 5 -18 5 -19 0 -27 -2 -17 -5z"/>
<path d="M2403 3673 c15 -2 37 -2 50 0 12 2 0 4 -28 4 -27 0 -38 -2 -22 -4z"/>
<path d="M2338 3663 c7 -3 16 -2 19 1 4 3 -2 6 -13 5 -11 0 -14 -3 -6 -6z"/>
<path d="M2270 3621 c0 -4 7 -14 15 -21 20 -17 19 -53 -3 -73 -11 -10 -35 -17
-58 -17 -40 0 -80 21 -158 84 -20 16 -38 27 -40 25 -2 -2 -6 -40 -7 -83 -4
-84 1 -93 55 -95 18 -1 18 0 3 17 -18 19 -23 87 -9 96 5 3 24 -11 43 -30 46
-48 79 -64 132 -64 72 0 115 60 91 125 -7 18 -64 51 -64 36z"/>
<path d="M2518 3623 c6 -2 18 -2 25 0 6 3 1 5 -13 5 -14 0 -19 -2 -12 -5z"/>
<path d="M2513 3563 c9 -2 23 -2 30 0 6 3 -1 5 -18 5 -16 0 -22 -2 -12 -5z"/>
<path d="M2418 3553 c12 -2 30 -2 40 0 9 3 -1 5 -23 4 -22 0 -30 -2 -17 -4z"/>
<path d="M2508 3503 c6 -2 18 -2 25 0 6 3 1 5 -13 5 -14 0 -19 -2 -12 -5z"/>
<path d="M2413 3433 c20 -2 54 -2 75 0 20 2 3 4 -38 4 -41 0 -58 -2 -37 -4z"/>
<path d="M2200 3423 c-8 -3 -28 -19 -43 -35 -23 -24 -28 -37 -25 -64 2 -19 2
-34 1 -34 -20 0 -74 34 -95 58 -43 51 -47 18 -5 -42 44 -63 175 -87 243 -45
57 35 60 99 6 136 l-33 22 58 4 c53 3 51 3 -17 4 -41 1 -82 -1 -90 -4z m81
-63 c10 -6 19 -19 19 -30 0 -27 -30 -40 -88 -40 -37 0 -51 4 -56 16 -16 43 73
81 125 54z"/>
<path d="M2078 3413 c18 -2 45 -2 60 0 15 2 0 4 -33 4 -33 0 -45 -2 -27 -4z"/>
<path d="M2458 3373 c6 -2 18 -2 25 0 6 3 1 5 -13 5 -14 0 -19 -2 -12 -5z"/>
<path d="M2458 3323 c12 -2 30 -2 40 0 9 3 -1 5 -23 4 -22 0 -30 -2 -17 -4z"/>
<path d="M2388 3313 c6 -2 18 -2 25 0 6 3 1 5 -13 5 -14 0 -19 -2 -12 -5z"/>
<path d="M2453 3263 c9 -2 25 -2 35 0 9 3 1 5 -18 5 -19 0 -27 -2 -17 -5z"/>
<path d="M2328 3203 c23 -2 59 -2 80 0 20 2 1 4 -43 4 -44 0 -61 -2 -37 -4z"/>
<path d="M2433 3153 c9 -2 25 -2 35 0 9 3 1 5 -18 5 -19 0 -27 -2 -17 -5z"/>
<path d="M2418 3093 c12 -2 30 -2 40 0 9 3 -1 5 -23 4 -22 0 -30 -2 -17 -4z"/>
<path d="M2423 3043 c9 -2 25 -2 35 0 9 3 1 5 -18 5 -19 0 -27 -2 -17 -5z"/>
<path d="M2218 2993 c45 -2 119 -2 165 0 45 1 8 3 -83 3 -91 0 -128 -2 -82 -3z"/>
<path d="M2413 2933 c9 -2 23 -2 30 0 6 3 -1 5 -18 5 -16 0 -22 -2 -12 -5z"/>
<path d="M2343 2883 c9 -2 25 -2 35 0 9 3 1 5 -18 5 -19 0 -27 -2 -17 -5z"/>
<path d="M2398 2833 c12 -2 30 -2 40 0 9 3 -1 5 -23 4 -22 0 -30 -2 -17 -4z"/>
<path d="M2298 2783 c29 -2 74 -2 100 0 26 2 2 3 -53 3 -55 0 -76 -1 -47 -3z"/>
<path d="M1972 2748 c-15 -15 -15 -78 1 -99 7 -9 23 -21 36 -28 19 -10 21 -15
10 -22 -9 -5 8 -8 46 -7 l60 1 -45 7 c-25 4 -35 8 -24 8 12 1 33 11 47 22 21
17 27 18 36 6 19 -23 61 -28 87 -11 47 31 20 116 -36 114 -11 0 -9 -5 8 -16
27 -19 29 -49 4 -62 -27 -14 -61 -2 -76 27 l-13 26 -12 -23 c-28 -51 -121 -47
-121 6 0 13 7 26 15 29 18 7 20 34 2 34 -7 0 -18 -5 -25 -12z"/>
<path d="M2388 2733 c12 -2 30 -2 40 0 9 3 -1 5 -23 4 -22 0 -30 -2 -17 -4z"/>
<path d="M2337 2683 c18 -2 50 -2 70 0 21 2 7 4 -32 4 -38 0 -55 -2 -38 -4z"/>
<path d="M2383 2633 c9 -2 25 -2 35 0 9 3 1 5 -18 5 -19 0 -27 -2 -17 -5z"/>
<path d="M1938 2603 c7 -3 16 -2 19 1 4 3 -2 6 -13 5 -11 0 -14 -3 -6 -6z"/>
<path d="M2228 2583 c7 -3 16 -2 19 1 4 3 -2 6 -13 5 -11 0 -14 -3 -6 -6z"/>
<path d="M2268 2583 c7 -3 16 -2 19 1 4 3 -2 6 -13 5 -11 0 -14 -3 -6 -6z"/>
<path d="M2328 2583 c18 -2 45 -2 60 0 15 2 0 4 -33 4 -33 0 -45 -2 -27 -4z"/>
<path d="M2003 2566 c-45 -21 -59 -50 -38 -83 24 -35 78 -55 157 -55 95 -1
147 38 119 90 -26 48 -173 77 -238 48z m135 -36 c74 -10 99 -25 80 -47 -16
-20 -207 -15 -232 6 -47 39 27 60 152 41z"/>
<path d="M2323 2493 c15 -2 37 -2 50 0 12 2 0 4 -28 4 -27 0 -38 -2 -22 -4z"/>
<path d="M2373 2453 c9 -2 25 -2 35 0 9 3 1 5 -18 5 -19 0 -27 -2 -17 -5z"/>
<path d="M2298 2413 c6 -2 18 -2 25 0 6 3 1 5 -13 5 -14 0 -19 -2 -12 -5z"/>
<path d="M2408 2413 c7 -3 16 -2 19 1 4 3 -2 6 -13 5 -11 0 -14 -3 -6 -6z"/>
<path d="M2373 2373 c9 -2 23 -2 30 0 6 3 -1 5 -18 5 -16 0 -22 -2 -12 -5z"/>
<path d="M2308 2343 c7 -3 16 -2 19 1 4 3 -2 6 -13 5 -11 0 -14 -3 -6 -6z"/>
<path d="M2378 2333 c12 -2 32 -2 45 0 12 2 2 4 -23 4 -25 0 -35 -2 -22 -4z"/>
<path d="M2128 2283 c6 -2 18 -2 25 0 6 3 1 5 -13 5 -14 0 -19 -2 -12 -5z"/>
<path d="M2198 2273 c12 -2 32 -2 45 0 12 2 2 4 -23 4 -25 0 -35 -2 -22 -4z"/>
<path d="M2298 2263 c12 -2 32 -2 45 0 12 2 2 4 -23 4 -25 0 -35 -2 -22 -4z"/>
<path d="M2388 2253 c12 -2 30 -2 40 0 9 3 -1 5 -23 4 -22 0 -30 -2 -17 -4z"/>
<path d="M2368 2223 c6 -2 18 -2 25 0 6 3 1 5 -13 5 -14 0 -19 -2 -12 -5z"/>
<path d="M2428 2213 c7 -3 16 -2 19 1 4 3 -2 6 -13 5 -11 0 -14 -3 -6 -6z"/>
<path d="M2343 2183 c15 -2 39 -2 55 0 15 2 2 4 -28 4 -30 0 -43 -2 -27 -4z"/>
<path d="M2383 2143 c9 -2 25 -2 35 0 9 3 1 5 -18 5 -19 0 -27 -2 -17 -5z"/>
<path d="M2004 2115 c-11 -27 5 -63 38 -84 32 -20 33 -21 8 -22 -30 -2 54 -18
90 -17 23 0 22 1 -5 8 -16 4 -23 8 -14 9 9 0 22 8 29 16 12 14 15 14 31 -1 10
-9 36 -17 56 -18 34 -1 38 2 41 25 3 28 -19 53 -58 63 l-25 7 28 -21 c15 -12
27 -26 27 -31 0 -17 -64 -9 -85 11 -20 18 -23 19 -35 5 -16 -19 -70 -20 -96
-1 -16 13 -17 18 -6 35 16 27 15 31 -3 31 -9 0 -18 -7 -21 -15z"/>
<path d="M2268 2123 c7 -3 16 -2 19 1 4 3 -2 6 -13 5 -11 0 -14 -3 -6 -6z"/>
<path d="M2343 2113 c9 -2 23 -2 30 0 6 3 -1 5 -18 5 -16 0 -22 -2 -12 -5z"/>
<path d="M2413 2103 c9 -2 25 -2 35 0 9 3 1 5 -18 5 -19 0 -27 -2 -17 -5z"/>
<path d="M2423 2063 c9 -2 23 -2 30 0 6 3 -1 5 -18 5 -16 0 -22 -2 -12 -5z"/>
<path d="M2338 2043 c7 -3 16 -2 19 1 4 3 -2 6 -13 5 -11 0 -14 -3 -6 -6z"/>
<path d="M2383 2033 c9 -2 25 -2 35 0 9 3 1 5 -18 5 -19 0 -27 -2 -17 -5z"/>
<path d="M2448 2023 c7 -3 16 -2 19 1 4 3 -2 6 -13 5 -11 0 -14 -3 -6 -6z"/>
<path d="M2423 1993 c9 -2 25 -2 35 0 9 3 1 5 -18 5 -19 0 -27 -2 -17 -5z"/>
<path d="M2188 1983 c12 -2 30 -2 40 0 9 3 -1 5 -23 4 -22 0 -30 -2 -17 -4z"/>
<path d="M2036 1958 c4 -13 11 -34 17 -48 8 -20 11 -22 14 -8 3 13 12 16 31
12 70 -12 212 -30 212 -27 0 3 -12 20 -26 39 -27 35 -51 46 -40 19 4 -11 -2
-15 -22 -15 -57 0 -157 21 -168 35 -17 22 -26 18 -18 -7z"/>
<path d="M2290 1969 c25 -4 59 -7 75 -7 22 0 18 3 -15 9 -25 4 -58 7 -75 7
-22 0 -18 -3 15 -9z"/>
<path d="M2408 1953 c6 -2 18 -2 25 0 6 3 1 5 -13 5 -14 0 -19 -2 -12 -5z"/>
<path d="M2453 1913 c9 -2 23 -2 30 0 6 3 -1 5 -18 5 -16 0 -22 -2 -12 -5z"/>
<path d="M2388 1893 c7 -3 16 -2 19 1 4 3 -2 6 -13 5 -11 0 -14 -3 -6 -6z"/>
<path d="M2438 1863 c6 -2 18 -2 25 0 6 3 1 5 -13 5 -14 0 -19 -2 -12 -5z"/>
<path d="M2318 1853 c7 -3 16 -2 19 1 4 3 -2 6 -13 5 -11 0 -14 -3 -6 -6z"/>
<path d="M2368 1843 c6 -2 18 -2 25 0 6 3 1 5 -13 5 -14 0 -19 -2 -12 -5z"/>
<path d="M2438 1833 c7 -3 16 -2 19 1 4 3 -2 6 -13 5 -11 0 -14 -3 -6 -6z"/>
<path d="M2473 1803 c9 -2 23 -2 30 0 6 3 -1 5 -18 5 -16 0 -22 -2 -12 -5z"/>
<path d="M2418 1783 c6 -2 18 -2 25 0 6 3 1 5 -13 5 -14 0 -19 -2 -12 -5z"/>
<path d="M2293 1753 c9 -2 23 -2 30 0 6 3 -1 5 -18 5 -16 0 -22 -2 -12 -5z"/>
<path d="M2478 1753 c7 -3 16 -2 19 1 4 3 -2 6 -13 5 -11 0 -14 -3 -6 -6z"/>
<path d="M2353 1743 c9 -2 23 -2 30 0 6 3 -1 5 -18 5 -16 0 -22 -2 -12 -5z"/>
<path d="M2518 1743 c7 -3 16 -2 19 1 4 3 -2 6 -13 5 -11 0 -14 -3 -6 -6z"/>
<path d="M2408 1733 c6 -2 18 -2 25 0 6 3 1 5 -13 5 -14 0 -19 -2 -12 -5z"/>
<path d="M2468 1723 c6 -2 18 -2 25 0 6 3 1 5 -13 5 -14 0 -19 -2 -12 -5z"/>
<path d="M2508 1693 c6 -2 18 -2 25 0 6 3 1 5 -13 5 -14 0 -19 -2 -12 -5z"/>
<path d="M2463 1673 c9 -2 23 -2 30 0 6 3 -1 5 -18 5 -16 0 -22 -2 -12 -5z"/>
<path d="M2518 1663 c6 -2 18 -2 25 0 6 3 1 5 -13 5 -14 0 -19 -2 -12 -5z"/>
<path d="M2160 1647 c0 -15 33 -48 65 -65 18 -10 18 -11 2 -12 -17 0 -16 -3 5
-41 21 -38 50 -59 81 -59 6 0 1 7 -11 16 -47 33 -19 31 53 -3 124 -58 216 -54
139 6 -31 24 -52 28 -34 6 33 -40 -35 -30 -135 19 -41 20 -62 35 -50 36 11 0
31 7 44 14 20 11 29 11 45 1 30 -18 69 -25 85 -15 13 7 13 11 1 25 -14 17 -63
45 -77 45 -4 -1 5 -8 20 -16 15 -8 25 -19 22 -24 -9 -15 -26 -12 -68 10 -30
16 -41 18 -56 8 -29 -18 -97 11 -94 40 2 16 -3 22 -17 22 -11 0 -20 -6 -20
-13z"/>
<path d="M2418 1633 c7 -3 16 -2 19 1 4 3 -2 6 -13 5 -11 0 -14 -3 -6 -6z"/>
<path d="M2458 1623 c6 -2 18 -2 25 0 6 3 1 5 -13 5 -14 0 -19 -2 -12 -5z"/>
<path d="M2508 1613 c6 -2 18 -2 25 0 6 3 1 5 -13 5 -14 0 -19 -2 -12 -5z"/>
<path d="M2558 1583 c7 -3 16 -2 19 1 4 3 -2 6 -13 5 -11 0 -14 -3 -6 -6z"/>
<path d="M2513 1563 c9 -2 23 -2 30 0 6 3 -1 5 -18 5 -16 0 -22 -2 -12 -5z"/>
<path d="M2568 1553 c7 -3 16 -2 19 1 4 3 -2 6 -13 5 -11 0 -14 -3 -6 -6z"/>
<path d="M2413 1526 c19 -10 34 -12 50 -6 22 9 22 9 -3 10 -14 0 -36 3 -50 6
-24 6 -24 5 3 -10z"/>
<path d="M2598 1523 c7 -3 16 -2 19 1 4 3 -2 6 -13 5 -11 0 -14 -3 -6 -6z"/>
<path d="M2498 1513 c6 -2 18 -2 25 0 6 3 1 5 -13 5 -14 0 -19 -2 -12 -5z"/>
<path d="M2548 1503 c6 -2 18 -2 25 0 6 3 1 5 -13 5 -14 0 -19 -2 -12 -5z"/>
<path d="M2608 1493 c7 -3 16 -2 19 1 4 3 -2 6 -13 5 -11 0 -14 -3 -6 -6z"/>
<path d="M2588 1463 c7 -3 16 -2 19 1 4 3 -2 6 -13 5 -11 0 -14 -3 -6 -6z"/>
<path d="M2668 1393 c7 -3 16 -2 19 1 4 3 -2 6 -13 5 -11 0 -14 -3 -6 -6z"/>
<path d="M2618 1383 c7 -3 16 -2 19 1 4 3 -2 6 -13 5 -11 0 -14 -3 -6 -6z"/>
<path d="M2638 1343 c6 -2 18 -2 25 0 6 3 1 5 -13 5 -14 0 -19 -2 -12 -5z"/>
<path d="M2688 1333 c6 -2 18 -2 25 0 6 3 1 5 -13 5 -14 0 -19 -2 -12 -5z"/>
<path d="M2718 1293 c7 -3 16 -2 19 1 4 3 -2 6 -13 5 -11 0 -14 -3 -6 -6z"/>
</g>
</svg>
